<svg id="Layer_1" data-name="Layer 1" xmlns="http://www.w3.org/2000/svg" xmlns:xlink="http://www.w3.org/1999/xlink" viewBox="0 0 288 288"><defs><style>.cls-1{fill:url(#linear-gradient);}.cls-2{fill:url(#linear-gradient-2);}.cls-3{fill:url(#linear-gradient-3);}.cls-4{fill:url(#linear-gradient-4);}.cls-5{fill:url(#linear-gradient-5);}.cls-6{fill:url(#linear-gradient-6);}</style><linearGradient id="linear-gradient" x1="28.73" y1="133.37" x2="197.65" y2="133.37" gradientUnits="userSpaceOnUse"><stop offset="0" stop-color="#0f81a5"/><stop offset="1" stop-color="#0a647f"/></linearGradient><linearGradient id="linear-gradient-2" x1="45.5" y1="170.56" x2="259.27" y2="170.56" gradientUnits="userSpaceOnUse"><stop offset="0" stop-color="#aaadad"/><stop offset="1" stop-color="#6f797c"/></linearGradient><linearGradient id="linear-gradient-3" x1="174.85" y1="214.76" x2="191.1" y2="195.4" gradientUnits="userSpaceOnUse"><stop offset="0" stop-color="#9da0a0"/><stop offset="1" stop-color="#6f797c"/></linearGradient><linearGradient id="linear-gradient-4" x1="208.1" y1="173.83" x2="227.06" y2="151.23" xlink:href="#linear-gradient-3"/><linearGradient id="linear-gradient-5" x1="191.1" y1="247.77" x2="202.18" y2="234.56" xlink:href="#linear-gradient-3"/><linearGradient id="linear-gradient-6" x1="221.48" y1="230.41" x2="258.06" y2="186.81" xlink:href="#linear-gradient-3"/></defs><path class="cls-1" d="M150.24,203.37H72l66.4-115,36.29,62.86a59.71,59.71,0,0,1,22.93-10.28L138.43,38.36l-109.7,190H157.39A59.91,59.91,0,0,1,150.24,203.37Z"/><path class="cls-2" d="M104.71,96.77l-3.5-.84c-32.25-7.52-49-5.56-54.31,6.36S51.31,128,78.44,147c21.17,14.8,50.64,30.93,83.11,45.49a49.2,49.2,0,1,0,7.22-18.69C141,161.24,115,147.33,95.63,134.47c-17.4-11.53-24.8-18.94-27.92-22.89-6.88-8.54.4-18,33.92-9.48"/><circle class="cls-3" cx="182.97" cy="205.08" r="12.64"/><path class="cls-4" d="M204.84,151.56a16.87,16.87,0,1,0,30.93,9.31,17.21,17.21,0,0,0-.2-2.5,49,49,0,0,0-25.49-7.11A50.33,50.33,0,0,0,204.84,151.56Z"/><path class="cls-5" d="M195.61,232.17a10.23,10.23,0,0,0-10.23,10.23c0,.2,0,.4,0,.6a48.87,48.87,0,0,0,17.87,6.16,10.22,10.22,0,0,0-7.67-17Z"/><path class="cls-6" d="M217.19,213.19a29.21,29.21,0,0,0,20.58,27.91A49.2,49.2,0,0,0,257.11,186a29.2,29.2,0,0,0-39.92,27.17Z"/></svg>